<svg xmlns="http://www.w3.org/2000/svg" viewBox="0 0 32 40" x="0px" y="0px"><g><path d="M25.66846,13.7666,16.55615,7.669a.99865.99865,0,0,0-1.1123,0L6.33154,13.7666A2.99452,2.99452,0,0,0,5,16.25977V25a3.00328,3.00328,0,0,0,3,3H24a3.00328,3.00328,0,0,0,3-3V16.25977A2.99452,2.99452,0,0,0,25.66846,13.7666ZM14,26V22a1,1,0,0,1,1-1h2a1,1,0,0,1,1,1v4Zm11-1a1.0013,1.0013,0,0,1-1,1H20V22a3,3,0,0,0-3-3H15a3,3,0,0,0-3,3v4H8a1.0013,1.0013,0,0,1-1-1V16.25977a.99839.99839,0,0,1,.44385-.83106L16,9.70312l8.55615,5.72559A.99839.99839,0,0,1,25,16.25977Zm4.55127-12.53906L27,10.69464V6a2,2,0,0,0-2-2H24a2,2,0,0,0-2,2V7.233L17.69141,4.25a3.01467,3.01467,0,0,0-3.41846.00244L2.44775,12.46191a.99989.99989,0,0,0,1.14063,1.64258L15.41357,5.895a1.00379,1.00379,0,0,1,1.13916-.00049L28.4126,14.10547a1.00013,1.00013,0,1,0,1.13867-1.64453ZM24,6h1V9.30994l-1-.69233Z"/></g><text x="0" y="47" fill="#000000" font-size="5px" font-weight="bold" font-family="'Helvetica Neue', Helvetica, Arial-Unicode, Arial, Sans-serif">Created by Anconer Design</text><text x="0" y="52" fill="#000000" font-size="5px" font-weight="bold" font-family="'Helvetica Neue', Helvetica, Arial-Unicode, Arial, Sans-serif">from the Noun Project</text></svg>