<svg xmlns="http://www.w3.org/2000/svg" xmlns:xlink="http://www.w3.org/1999/xlink" version="1.1" x="0px" y="0px" viewBox="0 0 100 125" style="enable-background:new 0 0 100 100;" xml:space="preserve"><g><path d="M25,86h29c2.8,0,5-2.2,5-5s-2.2-5-5-5H25c-2.2,0-4-1.8-4-4V28c0-2.2,1.8-4,4-4h29c2.8,0,5-2.2,5-5s-2.2-5-5-5H25   c-7.7,0-14,6.3-14,14v44C11,79.7,17.3,86,25,86z"/><path d="M75,31c-2-2-5.1-2-7.1,0c-2,2-2,5.1,0,7.1l7,7H38c-2.8,0-5,2.2-5,5s2.2,5,5,5h35.9l-6,6c-2,2-2,5.1,0,7.1   c1,1,2.3,1.5,3.5,1.5S74.1,69,75,68l15-15c2-2,2-5.1,0-7.1L75,31z"/></g><text x="0" y="115" fill="#000000" font-size="5px" font-weight="bold" font-family="'Helvetica Neue', Helvetica, Arial-Unicode, Arial, Sans-serif">Created by praveen patchu</text><text x="0" y="120" fill="#000000" font-size="5px" font-weight="bold" font-family="'Helvetica Neue', Helvetica, Arial-Unicode, Arial, Sans-serif">from the Noun Project</text></svg>