<svg xmlns="http://www.w3.org/2000/svg" xmlns:xlink="http://www.w3.org/1999/xlink" version="1.1" x="0px" y="0px" viewBox="0 0 100 125" enable-background="new 0 0 100 100" xml:space="preserve"><path d="M30,15.22c-8.149,0-14.78,6.63-14.78,14.78S21.851,44.78,30,44.78S44.78,38.15,44.78,30S38.149,15.22,30,15.22z M30,39.78  c-5.393,0-9.78-4.387-9.78-9.78s4.388-9.78,9.78-9.78s9.78,4.387,9.78,9.78S35.393,39.78,30,39.78z M70,44.78  c8.149,0,14.78-6.63,14.78-14.78S78.149,15.22,70,15.22S55.22,21.85,55.22,30S61.851,44.78,70,44.78z M70,20.22  c5.393,0,9.78,4.387,9.78,9.78s-4.388,9.78-9.78,9.78s-9.78-4.387-9.78-9.78S64.607,20.22,70,20.22z M30,55.22  c-8.149,0-14.78,6.63-14.78,14.78S21.851,84.78,30,84.78S44.78,78.15,44.78,70S38.149,55.22,30,55.22z M30,79.78  c-5.393,0-9.78-4.387-9.78-9.78s4.388-9.78,9.78-9.78s9.78,4.387,9.78,9.78S35.393,79.78,30,79.78z M70,55.22  c-8.149,0-14.78,6.63-14.78,14.78S61.851,84.78,70,84.78S84.78,78.15,84.78,70S78.149,55.22,70,55.22z M70,79.78  c-5.393,0-9.78-4.387-9.78-9.78s4.388-9.78,9.78-9.78s9.78,4.387,9.78,9.78S75.393,79.78,70,79.78z"/><text x="0" y="115" fill="#000000" font-size="5px" font-weight="bold" font-family="'Helvetica Neue', Helvetica, Arial-Unicode, Arial, Sans-serif">Created by myladkings</text><text x="0" y="120" fill="#000000" font-size="5px" font-weight="bold" font-family="'Helvetica Neue', Helvetica, Arial-Unicode, Arial, Sans-serif">from the Noun Project</text></svg>