<svg xmlns="http://www.w3.org/2000/svg" xmlns:xlink="http://www.w3.org/1999/xlink" version="1.1" x="0px" y="0px" viewBox="0 0 170.494 213.1175" style="enable-background:new 0 0 170.494 170.494;" xml:space="preserve"><g><path d="M85.247,0C38.166,0,0,38.167,0,85.247c0,47.081,38.166,85.247,85.247,85.247c47.08,0,85.247-38.166,85.247-85.247   C170.494,38.167,132.327,0,85.247,0z M85.246,150.897c-36.197,0-65.648-29.45-65.648-65.65c0-36.2,29.451-65.65,65.648-65.65   c36.199,0,65.65,29.451,65.65,65.65C150.896,121.447,121.445,150.897,85.246,150.897z"/><path d="M86.549,73.302c3.235-8.157,1.616-17.813-4.936-24.47c-6.548-6.665-16.178-8.448-24.387-5.349l9.975,10.144   c3.575,3.63,3.525,9.475-0.109,13.045c-3.635,3.571-9.472,3.522-13.047-0.108l-9.974-10.142c-3.236,8.158-1.611,17.806,4.94,24.47   c6.549,6.663,16.171,8.445,24.382,5.343l38.839,39.491c3.569,3.632,9.416,3.683,13.045,0.112c3.634-3.577,3.684-9.416,0.111-13.046   L86.549,73.302z"/></g><text x="0" y="185.494" fill="#000000" font-size="5px" font-weight="bold" font-family="'Helvetica Neue', Helvetica, Arial-Unicode, Arial, Sans-serif">Created by Gan Khoon Lay</text><text x="0" y="190.494" fill="#000000" font-size="5px" font-weight="bold" font-family="'Helvetica Neue', Helvetica, Arial-Unicode, Arial, Sans-serif">from the Noun Project</text></svg>