<svg xmlns:figma="http://www.figma.com/figma/ns" xmlns="http://www.w3.org/2000/svg" xmlns:xlink="http://www.w3.org/1999/xlink" version="1.1" x="0px" y="0px" viewBox="0 0 50 62.5" style="enable-background:new 0 0 50 50;" xml:space="preserve"><path d="M25,0C11.2,0,0,11.2,0,25s11.2,25,25,25s25-11.2,25-25S38.8,0,25,0z M25,46C13.4,46,4,36.6,4,25C4,13.4,13.4,4,25,4  c11.6,0,21,9.4,21,21C46,36.6,36.6,46,25,46z"/><path d="M35,23h-8v-8c0-1.1-0.9-2-2-2s-2,0.9-2,2v8h-8c-1.1,0-2,0.9-2,2s0.9,2,2,2h8v8c0,1.1,0.9,2,2,2s2-0.9,2-2v-8h8  c1.1,0,2-0.9,2-2S36.1,23,35,23z"/><text x="0" y="65" fill="#000000" font-size="5px" font-weight="bold" font-family="'Helvetica Neue', Helvetica, Arial-Unicode, Arial, Sans-serif">Created by Camilo Núñez</text><text x="0" y="70" fill="#000000" font-size="5px" font-weight="bold" font-family="'Helvetica Neue', Helvetica, Arial-Unicode, Arial, Sans-serif">from the Noun Project</text></svg>